<svg width="35" height="36" viewBox="0 0 35 36" fill="none" xmlns="http://www.w3.org/2000/svg">
<path d="M17.8399 35.6467C11.1416 35.6467 5.10659 31.9494 2.02274 25.9972C1.973 25.9475 1.93983 25.8811 1.90667 25.8148C0.646597 23.2947 0 20.6087 0 17.8233C0 15.0379 0.646597 12.352 1.90667 9.83183C4.95736 3.76361 11.0588 0 17.8233 0C22.3662 0 26.4945 1.60823 29.7608 4.64234C30.0095 4.87446 30.1587 5.18949 30.1587 5.53767C30.1587 5.88584 30.026 6.20088 29.7774 6.44958L25.1018 11.0256C24.621 11.4898 23.8749 11.5064 23.3775 11.0422C22.333 10.064 20.5258 8.90338 17.8233 8.90338C14.4078 8.90338 11.2743 10.9593 9.86501 14.1592C9.74895 14.4245 9.64945 14.6732 9.54997 14.955C9.23496 15.9167 9.08575 16.8949 9.08575 17.8399C9.08575 18.785 9.25154 19.73 9.54997 20.6751C9.54997 20.6916 9.56657 20.7082 9.56657 20.7414C10.7603 24.3558 14.0763 26.7764 17.8233 26.7764C19.7963 26.7764 21.4874 26.2956 22.8636 25.334C24.1236 24.4553 24.9195 23.2781 25.3505 22.217H17.8399C17.1601 22.217 16.5964 21.6533 16.5964 20.9735V14.8224C16.5964 14.1426 17.1601 13.5789 17.8399 13.5789H33.4083C33.9886 13.5789 34.486 13.9768 34.6187 14.5405C34.8839 15.7011 35 16.7954 35 18.2047C35 23.4771 33.1099 28.136 29.6613 31.3193C26.594 34.1379 22.4988 35.6467 17.8399 35.6467ZM4.04547 24.5382C4.0952 24.6045 4.14496 24.6874 4.17812 24.7703C6.78116 29.9266 12.0204 33.1597 17.8399 33.1597C21.8688 33.1597 25.3671 31.883 27.9701 29.479C30.9048 26.7764 32.513 22.7641 32.513 18.1881C32.513 17.3591 32.4799 16.6959 32.3804 16.0493H19.0834V19.7134H26.9754C27.3235 19.7134 27.6717 19.8627 27.9038 20.1279C28.1359 20.3932 28.252 20.758 28.2023 21.1061C27.9867 22.9631 26.8261 25.5827 24.2894 27.3567C22.4988 28.6002 20.3268 29.2468 17.8233 29.2468C13.0318 29.2468 8.78732 26.163 7.22881 21.5538C7.22881 21.5372 7.21223 21.5206 7.21223 21.5041C6.79774 20.2937 6.59878 19.0668 6.59878 17.8399C6.59878 16.6296 6.79774 15.4027 7.19565 14.1757C7.31171 13.811 7.44433 13.4794 7.59355 13.1478C9.41733 9.05258 13.4297 6.4164 17.8233 6.4164C20.6584 6.4164 22.7475 7.41121 24.1734 8.45574L27.0748 5.62058C24.4552 3.56468 21.2719 2.48698 17.8233 2.48698C12.0038 2.48698 6.748 5.72006 4.12838 10.9427C3.05069 13.1147 2.48698 15.4358 2.48698 17.8233C2.50356 20.1611 3.01751 22.4159 4.04547 24.5382Z" fill="#BD2323"/>
</svg>
