<!DOCTYPE svg PUBLIC "-//W3C//DTD SVG 1.1//EN" "http://www.w3.org/Graphics/SVG/1.1/DTD/svg11.dtd">
<!-- Uploaded to: SVG Repo, www.svgrepo.com, Transformed by: SVG Repo Mixer Tools -->
<svg height="800px" width="800px" version="1.1" id="_x32_" xmlns="http://www.w3.org/2000/svg" xmlns:xlink="http://www.w3.org/1999/xlink" viewBox="0 0 512 512" xml:space="preserve" fill="#000000">
<g id="SVGRepo_bgCarrier" stroke-width="0"/>
<g id="SVGRepo_tracerCarrier" stroke-linecap="round" stroke-linejoin="round"/>
<g id="SVGRepo_iconCarrier"> <style type="text/css"> .st0{fill:#bd2323;} </style> <g> <path class="st0" d="M210.961,387.372c-1.067,19.558-8.892,38.688-23.843,53.647c-16.093,16.077-36.977,24.032-58.073,24.058 c-21.089-0.025-41.973-7.98-58.066-24.058c-16.08-16.092-24.02-36.963-24.052-58.065c0.028-21.093,7.972-41.972,24.052-58.065 c14.972-14.96,34.078-22.792,53.656-23.843c0.066-16.314,4.725-32.612,13.982-46.75c-3.186-0.23-6.379-0.394-9.573-0.378 c-32.941-0.04-66.108,12.636-91.249,37.785c-25.153,25.141-37.822,58.303-37.793,91.252c-0.028,32.941,12.64,66.112,37.793,91.252 c25.141,25.157,58.299,37.818,91.249,37.793c32.957,0.025,66.119-12.644,91.252-37.793c25.158-25.14,37.83-58.311,37.798-91.252 c0.004-3.194-0.148-6.388-0.386-9.565C243.561,382.643,227.267,387.298,210.961,387.372z"/> <path class="st0" d="M251.341,337.887l-77.22-77.22c-21.327,21.322-21.327,55.897,0,77.22 C195.443,359.21,230.013,359.21,251.341,337.887z"/> <path class="st0" d="M150.461,115.242c-7.438-7.447-19.5-7.447-26.939,0l-14.644,14.639c-7.434,7.439-7.434,19.5,0,26.939 l252.245,252.245c7.439,7.438,19.5,7.438,26.939,0l14.644-14.648c7.439-7.439,7.439-19.501,0-26.939L150.461,115.242z"/> <path class="st0" d="M477.553,34.441c-45.926-45.922-120.395-45.922-166.325,0c-45.93,45.938-23.872,115.096-61.431,147.29 l80.484,80.472c32.189-37.555,101.343-15.502,147.272-61.432C523.479,154.842,523.479,80.38,477.553,34.441z M325.067,70.798 c2.939-4.615,6.203-8.876,9.923-12.587c32.756-32.752,86.051-32.752,118.803,0c3.92,3.916,7.34,8.153,10.324,12.587H325.067z"/> </g> </g>
</svg>