<!DOCTYPE svg PUBLIC "-//W3C//DTD SVG 1.1//EN" "http://www.w3.org/Graphics/SVG/1.1/DTD/svg11.dtd">
<!-- Uploaded to: SVG Repo, www.svgrepo.com, Transformed by: SVG Repo Mixer Tools -->
<svg width="800px" height="800px" viewBox="-105.3 -105.3 1263.60 1263.60" class="icon" version="1.1" xmlns="http://www.w3.org/2000/svg" fill="#000000">
<g id="SVGRepo_bgCarrier" stroke-width="0">
<rect x="-105.3" y="-105.3" width="1263.60" height="1263.60" rx="63.18" fill="#bd2323" strokewidth="0"/>
</g>
<g id="SVGRepo_tracerCarrier" stroke-linecap="round" stroke-linejoin="round" stroke="#CCCCCC" stroke-width="2.106"/>
<g id="SVGRepo_iconCarrier">
<path d="M160.914286 73.142857h541.257143v833.828572H160.914286z" fill="#e5dcdc"/>
<path d="M731.428571 936.228571H131.657143V51.2H731.428571v885.028571zM190.171429 877.714286h482.742857V102.4H190.171429V877.714286z" fill="#9f7b7a"/>
<path d="M702.171429 219.428571h212.114285v687.542858H702.171429z" fill="#e5dcdc"/>
<path d="M936.228571 936.228571H672.914286V190.171429h263.314285v746.057142z m-204.8-51.2h153.6V248.685714H731.428571v636.342857z" fill="#9f7b7a"/>
<path d="M1024 943.542857H29.257143c-14.628571 0-29.257143-14.628571-29.257143-29.257143s14.628571-29.257143 29.257143-29.257143H1024c14.628571 0 29.257143 14.628571 29.257143 29.257143s-14.628571 29.257143-29.257143 29.257143zM468.114286 197.485714h175.542857v58.514286H468.114286zM226.742857 197.485714h175.542857v58.514286H226.742857z" fill="#9f7b7a"/>
<path d="M468.114286 358.4h175.542857v58.514286H468.114286zM226.742857 358.4h175.542857v58.514286H226.742857z" fill="#9f7b7a"/>
<path d="M468.114286 512h175.542857v58.514286H468.114286zM226.742857 512h175.542857v58.514286H226.742857z" fill="#9f7b7a"/>
<path d="M782.628571 570.514286h58.514286v175.542857h-58.514286zM782.628571 329.142857h58.514286v175.542857h-58.514286z" fill="#9f7b7a"/>
</g>
</svg>